<?xml version="1.0" standalone="no"?>
<!DOCTYPE svg PUBLIC "-//W3C//DTD SVG 20010904//EN"
 "http://www.w3.org/TR/2001/REC-SVG-20010904/DTD/svg10.dtd">
<svg version="1.0" xmlns="http://www.w3.org/2000/svg"
 width="1024.000000pt" height="1024.000000pt" viewBox="0 0 1024.000000 1024.000000"
 preserveAspectRatio="xMidYMid meet">
<metadata>
Created by potrace 1.14, written by Peter Selinger 2001-2017
</metadata>
<g transform="translate(0.000000,1024.000000) scale(0.100000,-0.100000)"
fill="#000000" stroke="none">
<path d="M7200 9015 c0 -674 -2 -1225 -5 -1225 -3 0 -22 11 -43 23 -20 13 -65
37 -99 53 -35 16 -61 33 -60 39 2 5 -14 18 -36 27 -33 15 -38 22 -33 41 18 62
65 268 71 310 5 28 3 47 -2 47 -10 0 -102 -59 -301 -192 l-104 -69 -71 10
c-253 36 -592 44 -757 17 -383 -62 -707 -164 -1094 -345 -116 -54 -113 -54
-176 -10 -14 9 -36 21 -50 25 -23 6 -24 6 -10 -12 15 -18 14 -18 -12 -1 -33
21 -38 21 -38 4 0 -22 31 -44 90 -67 30 -12 66 -30 80 -40 25 -19 25 -19 5
-34 -11 -8 -32 -22 -47 -31 -27 -16 -27 -16 -47 24 -12 22 -25 42 -30 46 -14
8 -32 -30 -40 -83 l-6 -45 -118 -23 c-132 -26 -236 -66 -202 -79 11 -4 35 -14
54 -22 l35 -14 -50 -33 c-62 -42 -157 -127 -221 -198 -120 -133 -202 -294
-249 -493 -25 -104 -42 -280 -30 -310 6 -17 8 -17 27 1 12 11 34 40 49 66 14
27 30 45 33 41 4 -3 7 -25 7 -48 0 -23 5 -67 11 -99 6 -32 9 -59 7 -61 -2 -2
-163 10 -358 26 -195 15 -647 51 -1005 79 -594 47 -795 62 -1346 105 -275 21
-370 21 -402 0 -14 -9 -29 -25 -32 -36 -8 -24 -25 -23 -100 4 -55 20 -60 25
-63 55 -5 49 40 86 144 118 46 14 84 28 84 31 0 5 -97 -2 -135 -11 -11 -3 -32
-7 -48 -11 -15 -3 -43 -21 -62 -39 l-35 -34 0 -749 c0 -411 5 -1135 12 -1608
6 -473 13 -1260 15 -1750 2 -490 5 -1006 6 -1149 l2 -258 35 -29 c19 -17 45
-32 57 -35 22 -6 268 29 1138 162 197 30 365 53 373 52 8 -2 -12 -31 -51 -75
-36 -39 -82 -97 -102 -130 -21 -32 -54 -82 -73 -111 -112 -175 -274 -615 -289
-790 l-6 -72 3852 0 3851 0 -6 42 c-9 68 -45 211 -60 239 -31 61 -65 89 -135
110 -78 24 -89 33 -59 49 42 22 173 -32 227 -93 35 -40 69 -135 78 -222 10
-100 17 -125 31 -125 17 0 17 -4 -1 105 -26 151 -45 211 -82 254 -35 41 -118
94 -166 106 -36 9 -38 13 -26 66 6 24 8 63 4 86 -6 41 -14 52 -92 122 -41 37
-46 91 -11 128 17 18 23 39 26 87 5 69 7 65 -95 136 -28 19 -45 41 -53 67 -24
73 -98 233 -109 233 -4 0 -16 18 -26 41 -22 49 -45 65 -122 88 -49 15 -58 21
-65 48 -24 91 -197 193 -573 335 l-90 34 2 34 c1 19 5 59 8 87 7 51 6 55 -33
105 -22 29 -54 69 -72 88 -17 19 -42 53 -55 75 -22 39 -23 51 -29 350 -3 171
-9 388 -13 483 -7 197 -17 181 100 158 40 -8 115 -17 167 -20 52 -3 109 -8
125 -10 17 -3 57 -7 90 -11 33 -3 98 -10 145 -15 47 -6 123 -15 170 -20 47 -5
126 -15 175 -21 50 -6 108 -12 130 -14 22 -1 60 -6 85 -9 25 -4 65 -9 90 -11
104 -8 267 -26 298 -31 18 -4 52 -7 75 -9 23 -1 88 -8 145 -15 112 -15 122
-12 122 38 0 21 4 22 69 22 39 0 72 3 74 8 3 4 1 70 -4 147 -22 379 -40 798
-35 820 3 13 1 109 -5 212 -6 103 -12 314 -14 468 -3 424 -25 927 -41 944 -10
12 -23 12 -71 3 -77 -16 -353 -66 -473 -87 -52 -9 -115 -21 -140 -26 -25 -5
-133 -25 -240 -44 -107 -19 -217 -39 -245 -45 -97 -20 -449 -80 -472 -80 -7 0
-13 10 -13 23 0 32 -44 55 -121 62 -45 4 -69 2 -80 -7 -19 -16 -59 -91 -59
-112 0 -13 -36 -33 -45 -24 -2 2 -6 116 -8 253 -5 284 -8 300 -78 335 -22 12
-46 19 -52 17 -7 -2 2 -11 18 -19 54 -29 95 -88 77 -114 -4 -6 -22 -16 -40
-22 -30 -10 -34 -9 -41 11 -5 13 -15 28 -22 34 -15 12 -135 28 -293 39 l-99 7
7 96 c4 53 14 119 24 148 19 58 19 58 105 29 25 -8 73 -20 107 -25 33 -6 64
-12 69 -15 12 -8 63 33 56 44 -3 5 4 14 16 20 58 32 144 175 179 300 67 240
18 421 -161 602 l-86 86 72 75 c71 74 155 184 169 221 6 18 2 19 -81 13 -67
-5 -83 -3 -68 5 50 27 125 128 125 168 0 6 -19 1 -42 -11 -76 -39 -179 -35
-299 12 l-26 10 2 142 c2 78 6 232 9 342 4 110 9 290 11 400 13 519 15 611 20
760 6 185 15 525 19 703 l2 122 -48 0 -48 0 0 -1225z m-250 -820 c-29 -137
-42 -188 -53 -212 -18 -41 -25 -14 -10 44 7 32 23 98 34 148 18 78 35 122 45
112 1 -1 -6 -43 -16 -92z m-272 -194 c158 -52 215 -78 388 -173 246 -136 334
-166 422 -145 39 10 43 -5 5 -23 -55 -27 -198 5 -300 67 -173 105 -470 238
-643 288 -52 15 -97 29 -100 32 -15 17 122 -11 228 -46z m884 -479 c-35 -44
-72 -78 -57 -52 17 28 79 100 83 95 2 -2 -9 -22 -26 -43z m-537 -102 c89 -30
222 -100 338 -178 94 -63 175 -153 222 -248 l40 -79 0 -140 c-1 -131 -2 -145
-29 -210 -30 -71 -56 -118 -56 -98 0 6 6 26 14 45 36 85 54 308 26 308 -4 0
-10 29 -14 64 -11 109 -53 182 -157 271 -88 76 -216 149 -385 220 -87 37 -161
69 -163 71 -2 2 14 4 37 4 23 0 80 -13 127 -30z m-1499 -381 c94 -13 213 -54
289 -100 95 -57 210 -175 244 -250 59 -130 66 -174 66 -409 0 -118 4 -221 8
-228 6 -9 23 0 64 35 106 91 131 122 193 237 63 115 83 135 95 95 4 -11 22
-46 40 -79 18 -32 38 -75 45 -97 31 -94 67 -143 106 -143 52 0 138 61 129 90
-3 10 2 23 10 30 14 11 28 11 83 -2 75 -18 92 -12 88 30 -3 21 -11 29 -35 36
-17 5 -30 14 -28 20 6 18 73 18 108 1 l32 -17 -7 -66 c-20 -192 -27 -278 -30
-387 -3 -66 -2 -105 1 -86 l4 34 142 -7 c78 -4 145 -10 148 -14 4 -4 8 -128
10 -276 l4 -269 -22 -2 c-36 -3 -40 -15 -5 -15 33 0 45 -9 34 -27 -5 -7 -57
-8 -167 -2 -103 5 -164 4 -172 -2 -6 -6 -115 -13 -247 -16 -208 -5 -236 -4
-236 9 0 10 14 18 43 22 39 7 462 25 590 26 l58 0 -2 193 c-1 105 -4 211 -6
235 l-5 42 -47 0 c-25 1 -64 4 -87 9 l-41 8 -7 -113 c-6 -118 -33 -341 -42
-356 -3 -4 -29 -8 -58 -8 l-53 0 4 48 c4 32 -2 66 -16 105 l-20 59 51 -7 c36
-5 49 -4 44 4 -4 6 -12 11 -19 11 -6 0 -58 23 -117 52 -94 46 -113 52 -185 56
-64 3 -91 0 -135 -17 -68 -26 -146 -84 -182 -136 -38 -55 -35 -63 6 -18 32 36
96 81 96 68 0 -3 -11 -22 -25 -43 -27 -41 -46 -152 -27 -152 6 0 16 9 22 20 8
15 21 20 55 20 43 0 45 -2 45 -28 0 -15 -5 -33 -12 -40 -15 -15 -64 -16 -73
-2 -14 22 -52 10 -67 -21 -14 -28 -16 -29 -21 -10 -4 17 -13 21 -46 21 -40 0
-41 1 -41 33 0 52 37 257 59 326 32 102 10 97 -29 -6 -22 -60 -36 -139 -46
-266 -4 -48 -10 -89 -13 -91 -3 -2 -96 1 -206 5 -110 5 -242 9 -292 9 l-93 0
0 63 c0 50 -6 72 -30 113 -53 93 -133 143 -262 165 -144 24 -271 -16 -375
-118 -60 -59 -88 -101 -104 -155 -10 -37 5 -36 21 2 13 31 82 100 100 100 6 0
10 6 10 14 0 13 20 26 40 26 4 0 2 -17 -6 -37 -17 -49 -18 -86 -1 -78 6 4 4 0
-5 -8 -10 -8 -18 -28 -18 -46 l0 -31 -122 0 c-138 0 -228 9 -228 21 0 5 35 10
78 11 l77 2 -72 3 c-64 3 -73 6 -73 23 0 11 -9 21 -22 25 -100 29 -288 119
-288 138 0 6 -9 118 -20 247 -11 129 -20 242 -20 250 0 9 39 39 92 70 133 79
230 178 291 298 29 58 47 106 47 128 0 49 -26 168 -60 276 l-29 93 35 31 c82
74 343 168 536 193 94 12 266 12 354 0z m2051 -251 c-3 -8 -6 -5 -6 6 -1 11 2
17 5 13 3 -3 4 -12 1 -19z m-346 -249 c19 -36 77 -109 134 -168 30 -31 54 -60
55 -64 0 -4 -9 -20 -20 -35 l-22 -27 -32 36 c-41 44 -97 140 -118 199 -9 25
-19 53 -23 63 -10 25 12 21 26 -4z m-466 -104 c14 -30 29 -54 33 -54 29 5 36
-10 19 -38 -5 -7 -6 -17 -3 -22 6 -10 -37 -31 -64 -31 -11 0 -20 3 -20 8 0 4
-7 49 -15 100 -22 133 -4 146 50 37z m95 -85 c0 -5 -4 -10 -10 -10 -5 0 -10 5
-10 10 0 6 5 10 10 10 6 0 10 -4 10 -10z m-96 -106 c9 -3 16 -10 16 -15 0 -14
-26 -10 -40 6 -13 16 -3 20 24 9z m-3019 -24 c3 -5 1 -10 -4 -10 -6 0 -11 5
-11 10 0 6 2 10 4 10 3 0 8 -4 11 -10z m-2675 -40 c139 -10 1031 -70 2068
-140 326 -22 603 -40 616 -40 21 0 25 -6 31 -51 4 -27 5 -52 3 -55 -3 -2 -222
9 -487 26 -265 17 -493 27 -507 24 -43 -11 -795 37 -828 52 -18 9 -43 11 -67
8 -20 -4 -75 -1 -121 5 -46 6 -209 16 -362 22 -230 9 -280 8 -287 -3 -10 -16
-12 -920 -2 -1388 l6 -333 526 7 c289 4 632 9 761 11 129 2 505 7 835 10 l600
7 59 -31 c32 -17 65 -32 75 -32 66 -6 -135 -17 -319 -18 -224 -1 -950 -12
-1986 -31 -298 -5 -549 -13 -558 -16 -16 -6 -21 -30 -10 -58 4 -11 11 -13 22
-7 10 5 126 12 259 16 l242 7 -6 -84 c-3 -46 -8 -85 -10 -88 -3 -3 -115 -6
-249 -8 l-244 -3 0 -25 c0 -18 5 -24 23 -25 78 -1 297 5 517 14 253 12 255 12
258 35 3 22 2 22 -127 22 -123 0 -131 1 -142 22 -10 19 -7 113 4 125 2 2 292
11 643 19 450 12 641 20 646 28 8 12 420 22 947 25 l263 1 -6 -24 c-3 -13 -1
-26 4 -28 12 -4 44 -197 34 -207 -3 -3 -114 -9 -247 -13 -232 -7 -714 -21
-1757 -53 -267 -8 -602 -17 -745 -19 -143 -2 -268 -7 -279 -11 -16 -7 -18 -15
-11 -69 11 -84 10 -201 -3 -331 -11 -109 -13 -1838 -2 -1848 4 -4 825 95 967
117 31 4 32 4 43 -48 8 -41 22 -66 59 -107 l49 -55 -652 -88 c-358 -49 -667
-91 -686 -93 l-35 -5 0 1164 c0 639 -2 1724 -4 2409 -2 685 -1 1251 3 1258 9
13 7 13 176 1z m2690 -20 c0 -5 -4 -10 -10 -10 -5 0 -10 5 -10 10 0 6 5 10 10
10 6 0 10 -4 10 -10z m10 -60 c0 -5 -4 -10 -10 -10 -5 0 -10 5 -10 10 0 6 5
10 10 10 6 0 10 -4 10 -10z m5754 -362 c3 -13 7 -151 10 -308 8 -432 45 -1464
66 -1835 14 -242 13 -338 -2 -333 -7 3 -30 29 -51 59 l-37 54 -10 205 c-5 113
-12 248 -15 300 -6 110 -30 569 -45 875 -17 341 -29 726 -24 785 8 88 12 99
62 153 l47 51 -63 -52 c-35 -29 -67 -52 -72 -52 -4 0 -332 -54 -728 -120 -395
-66 -726 -120 -736 -120 -20 0 -23 52 -3 68 6 5 82 22 167 37 85 14 288 51
450 80 162 29 365 65 450 81 85 15 232 42 325 59 211 40 204 40 209 13z
m-7561 -103 c57 -8 126 -36 169 -68 158 -118 228 -247 228 -417 0 -114 -38
-236 -97 -309 l-20 -24 -32 22 c-41 29 -49 47 -43 99 l4 42 77 1 c54 1 67 3
46 9 -16 4 -51 5 -77 2 l-48 -5 0 81 0 81 38 10 c20 6 50 13 66 16 46 10 25
13 -29 5 -34 -5 -52 -4 -57 4 -5 6 -8 7 -8 1 -1 -5 -5 0 -10 13 -5 12 -17 22
-27 21 -11 0 -13 -3 -5 -6 9 -3 12 -43 12 -148 l0 -144 -34 14 c-22 10 -37 11
-41 5 -11 -17 -54 -11 -103 14 -64 32 -70 42 -86 126 -14 69 -13 72 5 67 27
-7 34 10 9 23 -26 14 -26 45 0 77 13 17 18 34 14 46 -8 25 11 37 60 37 49 0
76 -23 76 -63 0 -29 1 -30 14 -11 14 18 15 18 21 2 4 -10 12 -15 18 -11 5 3
22 6 36 7 23 1 26 5 24 36 -1 19 -3 40 -4 45 -1 6 1 17 5 25 4 10 -4 21 -24
32 -22 13 -28 22 -23 35 5 15 4 16 -8 6 -8 -6 -41 -11 -74 -10 -111 2 -226
-75 -210 -140 6 -27 16 -27 -150 -8 -71 8 -147 15 -167 15 l-38 0 0 -195 c0
-113 -4 -195 -9 -195 -5 0 -19 26 -31 58 -19 51 -21 73 -18 202 3 140 5 147
35 206 82 157 216 254 378 274 33 4 67 6 75 4 8 -1 37 -5 63 -9z m5920 -92
c14 -8 -15 -33 -39 -33 -30 0 -41 20 -20 36 16 11 34 10 59 -3z m-4403 3 c0
-2 -8 -10 -17 -17 -16 -13 -17 -12 -4 4 13 16 21 21 21 13z m433 -36 c15 -17
27 -37 27 -45 0 -9 6 -12 18 -8 16 6 16 5 0 -14 -10 -11 -18 -25 -18 -31 0 -6
8 -9 18 -6 12 4 13 3 4 -3 -10 -8 -10 -16 -2 -39 6 -16 7 -24 2 -19 -99 106
-152 172 -152 188 0 31 67 16 103 -23z m1458 -16 c103 -29 173 -110 185 -217
l7 -57 -102 0 -101 0 0 48 c0 56 -24 135 -48 154 -14 11 -15 10 -9 -6 18 -46
28 -105 25 -142 -3 -38 -4 -39 -49 -48 -26 -5 -59 -5 -75 -1 -27 7 -27 8 -8
15 48 19 71 111 39 154 -20 26 -20 76 0 76 8 0 23 9 32 20 21 24 31 25 104 4z
m1387 -31 c38 -28 82 -119 89 -185 l6 -55 -34 -5 c-19 -3 -54 -5 -79 -4 l-45
1 -5 62 c-7 89 -25 99 -25 15 l0 -67 -47 -3 c-49 -3 -60 6 -33 28 25 21 30 78
9 100 -11 11 -27 28 -37 39 -10 10 -19 31 -20 47 -2 27 1 29 36 32 20 2 35 7
32 12 -3 4 24 7 60 6 48 -2 73 -8 93 -23z m2626 -35 c10 -92 8 -148 -8 -148
-8 0 -101 -11 -207 -25 -107 -14 -246 -32 -309 -41 -63 -8 -162 -21 -220 -29
-697 -95 -1023 -136 -1035 -131 -6 2 -11 35 -10 77 0 61 3 74 17 77 12 2 19
-5 24 -22 3 -14 20 -38 37 -52 38 -32 82 -28 133 11 l34 26 0 -26 c0 -16 4
-24 11 -19 6 3 8 17 5 30 -5 19 10 68 28 91 3 4 347 63 536 92 381 59 537 82
705 107 94 13 175 26 180 28 6 3 24 5 41 5 30 1 31 -1 38 -51z m-5394 2 c0 -5
-2 -10 -4 -10 -3 0 -8 5 -11 10 -3 6 -1 10 4 10 6 0 11 -4 11 -10z m1088 -118
c5 -37 -24 -72 -59 -72 -29 0 -30 1 -25 42 6 46 19 59 56 56 18 -2 26 -10 28
-26z m-111 -54 c-3 -7 -5 -2 -5 12 0 14 2 19 5 13 2 -7 2 -19 0 -25z m-3250
-11 c61 -7 115 -16 120 -21 8 -8 -174 -1 -249 11 l-38 6 0 -93 0 -93 151 5
c126 4 153 3 166 -10 14 -14 13 -16 -5 -23 -12 -5 -84 -11 -161 -15 l-139 -7
-6 -30 c-3 -16 -6 -68 -6 -114 0 -75 -2 -84 -15 -73 -13 10 -15 50 -15 241 l0
229 43 -1 c23 0 92 -6 154 -12z m7676 -59 c4 -40 11 -190 17 -333 6 -143 17
-393 25 -555 24 -491 39 -900 33 -906 -4 -3 -91 2 -195 10 -245 20 -426 33
-648 46 -99 6 -254 15 -345 20 -91 5 -277 21 -415 35 -137 14 -253 25 -257 25
-5 0 -8 20 -8 45 0 36 4 45 18 46 13 0 14 2 2 6 -8 3 -18 11 -22 17 -4 6 -8
91 -8 189 l0 177 73 2 72 2 -72 3 -73 4 0 279 0 280 43 2 42 1 -43 4 -43 4 2
155 c0 125 3 154 15 154 7 0 21 11 30 25 22 34 5 80 -26 72 -15 -4 -20 0 -20
14 0 10 4 19 9 19 18 0 308 41 361 50 30 6 237 33 460 61 223 27 520 65 660
83 140 19 267 34 281 35 25 1 26 -1 32 -71z m-5146 1 c26 -17 67 -44 89 -59
64 -43 80 -45 124 -16 48 32 58 32 64 4 3 -13 12 -59 21 -103 23 -110 55 -177
114 -234 95 -92 230 -120 500 -102 173 11 325 37 415 71 119 45 173 127 184
279 l7 86 150 3 c203 4 198 5 190 -66 -8 -80 13 -236 41 -301 16 -35 48 -77
94 -122 87 -86 90 -104 23 -154 -28 -20 -54 -32 -63 -28 -16 6 -32 8 -152 19
-69 6 -79 5 -103 -14 -25 -20 -29 -20 -62 -7 -20 8 -63 16 -97 16 -49 1 -55 3
-31 9 17 4 22 8 12 9 -10 0 -15 6 -12 11 3 6 -3 10 -14 10 -12 0 -21 5 -21 10
0 6 -5 10 -11 10 -5 0 -7 -6 -3 -12 5 -10 4 -10 -6 -1 -10 9 -17 10 -27 2 -10
-9 -13 -5 -13 21 0 52 -25 30 -28 -25 -4 -60 13 -102 47 -120 15 -7 60 -17
101 -20 112 -11 135 -23 145 -76 4 -24 10 -36 12 -26 5 20 30 16 105 -16 38
-15 51 -17 63 -7 12 10 17 5 30 -26 8 -20 18 -35 20 -32 3 3 -1 21 -10 40 -13
34 -13 38 6 62 12 15 44 38 72 53 61 30 69 40 62 71 -4 15 4 34 24 60 16 20
33 49 36 64 7 29 10 25 -88 109 -54 48 -102 136 -117 218 -5 29 -10 98 -10
152 l0 99 30 0 30 0 0 -67 c0 -86 16 -187 37 -227 26 -52 74 -95 132 -118 48
-18 81 -22 241 -26 165 -4 242 1 396 24 l41 6 12 -88 c19 -139 13 -429 -9
-459 -4 -5 -10 -46 -13 -90 -3 -44 -10 -107 -15 -140 -22 -122 -41 -259 -38
-263 7 -7 76 356 76 398 0 40 18 50 92 50 63 0 68 2 68 21 0 21 -3 22 -70 16
-38 -3 -71 -3 -74 1 -6 11 17 116 29 124 16 12 100 9 113 -4 9 -9 12 -5 12 20
l0 32 -70 0 c-38 0 -70 3 -70 8 1 42 13 51 69 54 l56 3 3 195 3 195 49 50 c37
36 52 59 56 87 18 113 24 -17 24 -550 0 -324 3 -840 7 -1146 l6 -558 -67 51
c-82 62 -103 73 -230 122 -56 20 -142 53 -193 73 -51 19 -113 38 -138 42 -56
8 -85 36 -85 81 0 35 -14 44 -24 16 -6 -14 -9 -15 -15 -4 -10 16 -31 6 -31
-15 0 -24 -53 -94 -67 -89 -7 2 -13 -2 -13 -11 0 -8 -11 -19 -25 -24 -14 -5
-25 -14 -25 -20 0 -5 -9 -10 -19 -10 -10 0 -22 -8 -25 -17 -5 -11 -10 -13 -17
-6 -7 7 -18 3 -34 -13 -27 -27 -50 -32 -41 -9 4 13 2 14 -14 5 -16 -9 -22 -7
-26 5 -5 13 -11 12 -40 -10 -28 -21 -34 -23 -34 -10 0 13 -6 15 -30 10 -21 -5
-30 -3 -30 6 0 10 -3 10 -12 1 -7 -7 -17 -8 -28 -2 -12 6 -23 5 -36 -4 -14
-10 -24 -11 -42 -3 -17 8 -29 8 -43 -1 -24 -16 -32 -15 -26 1 4 10 -8 13 -51
11 -60 -2 -83 6 -119 39 l-23 20 0 -24 0 -24 -18 23 c-13 16 -23 21 -36 16
-13 -5 -24 0 -37 17 -15 20 -19 21 -19 7 0 -10 -2 -18 -5 -18 -10 0 -60 34
-68 47 -4 7 -14 10 -21 7 -7 -3 -26 9 -42 25 -18 19 -35 29 -46 26 -10 -4 -30
6 -51 25 -20 17 -39 30 -44 28 -16 -4 -51 13 -57 27 -3 8 -12 15 -21 15 -14 0
-53 18 -65 30 -10 10 -50 30 -61 30 -6 0 -17 7 -25 15 -9 8 -23 15 -32 15 -10
0 -29 11 -44 25 -15 14 -32 25 -37 25 -5 0 -13 9 -16 20 -8 24 -25 27 -25 4 0
-13 -5 -11 -24 7 -14 13 -30 25 -35 25 -6 1 -16 2 -21 3 -6 0 -16 12 -22 26
-6 14 -24 32 -40 39 -26 14 -28 13 -29 -7 -1 -14 -5 -7 -11 17 -8 28 -18 42
-38 49 -15 6 -32 22 -38 36 l-10 26 -7 -23 c-7 -21 -9 -20 -33 17 -14 22 -29
38 -34 35 -4 -3 -8 2 -8 10 0 8 -9 20 -20 26 -11 6 -20 20 -20 31 0 12 -4 17
-11 14 -6 -4 -13 2 -16 14 -3 12 -11 21 -18 21 -8 0 -24 21 -37 48 -13 26 -26
49 -30 50 -5 2 -8 15 -8 28 0 24 -33 67 -44 57 -3 -4 -6 13 -6 36 0 26 -4 40
-10 36 -18 -11 -42 83 -56 225 -3 36 -11 70 -16 77 -5 6 -8 17 -7 25 5 23 -13
142 -24 163 -21 40 -61 310 -77 525 -10 134 -22 235 -36 303 -3 15 -3 27 0 27
3 0 27 -14 53 -31z m811 -11 c4 -21 -20 -24 -155 -20 -95 3 -103 5 -103 23 0
18 7 19 127 17 110 -3 128 -5 131 -20z m654 13 c14 -5 28 -15 30 -23 4 -10 -8
-13 -51 -13 -512 4 -544 5 -531 19 6 8 24 16 38 18 66 9 491 8 514 -1z m476
-12 c59 -22 15 -29 -183 -29 -192 0 -205 1 -205 18 0 10 3 22 6 25 9 9 354 -4
382 -14z m227 -9 c3 -5 -3 -10 -15 -10 -12 0 -18 5 -15 10 3 6 10 10 15 10 5
0 12 -4 15 -10z m-1702 -7 c-7 -2 -19 -2 -25 0 -7 3 -2 5 12 5 14 0 19 -2 13
-5z m591 -39 l418 -6 -7 -57 c-18 -163 -69 -232 -197 -269 -106 -32 -155 -39
-333 -52 -321 -23 -459 17 -541 155 -25 44 -54 155 -54 212 l0 32 148 -4 c81
-3 335 -8 566 -11z m1992 1 l41 -6 -13 -76 c-19 -109 -30 -136 -75 -187 -48
-54 -122 -91 -210 -105 -202 -33 -552 -32 -650 0 -103 35 -138 98 -142 256
l-2 108 376 3 377 2 16 -137 c20 -162 26 -203 30 -203 14 0 117 36 139 48 l27
16 0 141 c0 78 3 145 7 148 4 4 14 5 22 3 9 -3 34 -7 57 -11z m334 -175 c0
-16 -4 -30 -10 -30 -5 0 -10 3 -10 8 0 4 -3 17 -6 30 -5 16 -2 22 10 22 11 0
16 -9 16 -30z m-5570 -120 c-15 -28 -55 -35 -109 -18 -63 19 -64 52 -1 37 9
-3 16 5 18 18 3 19 6 21 22 10 16 -9 23 -8 37 6 17 16 18 16 31 -8 9 -18 10
-30 2 -45z m-386 -55 c4 -10 -6 -18 -35 -25 -42 -11 -69 -8 -69 8 0 7 43 22
91 31 4 0 9 -6 13 -14z m2290 -128 c28 -37 33 -52 14 -42 -7 4 -5 0 5 -8 9 -8
17 -19 17 -26 0 -6 4 -11 10 -11 5 0 7 -7 4 -15 -4 -8 -10 -13 -14 -10 -4 2
-7 -7 -7 -21 0 -35 -18 -51 -38 -34 -8 7 -15 20 -15 30 0 10 -7 21 -16 24 -8
3 -12 11 -9 16 4 6 1 9 -7 8 -8 -2 -12 4 -10 16 2 10 -6 27 -18 38 l-21 20 22
24 c31 33 53 30 83 -9z m2094 -284 c-10 -2 -26 -2 -35 0 -10 3 -2 5 17 5 19 0
27 -2 18 -5z m-1898 -78 c0 -11 -11 -15 -37 -15 l-38 1 25 14 c33 19 50 19 50
0z m-1574 -544 c-7 -11 -212 -24 -228 -15 -21 13 29 21 135 22 54 1 96 -2 93
-7z m-1278 -57 c4 -40 -25 -66 -70 -62 -28 3 -33 7 -36 32 -5 37 30 67 73 64
25 -3 30 -8 33 -34z m239 -90 c-3 -3 -12 -4 -19 -1 -8 3 -5 6 6 6 11 1 17 -2
13 -5z m6289 -124 c505 -50 1066 -93 1504 -116 74 -3 144 -10 156 -14 20 -8
90 -87 83 -95 -2 -1 -44 1 -94 5 -49 5 -184 18 -300 29 -259 25 -751 67 -942
80 -78 6 -254 22 -392 37 l-251 27 0 34 c0 40 -20 39 236 13z m-6296 -580 c0
-5 -4 -10 -9 -10 -6 0 -13 5 -16 10 -3 6 1 10 9 10 9 0 16 -4 16 -10z m-6 -91
c-3 -5 -10 -7 -15 -3 -5 3 -7 10 -3 15 3 5 10 7 15 3 5 -3 7 -10 3 -15z m5777
-133 c119 -96 222 -208 320 -351 38 -55 87 -122 109 -148 33 -40 40 -56 40
-92 0 -90 -49 -255 -120 -400 -49 -102 -79 -142 -39 -52 48 110 99 333 99 438
0 15 -142 238 -237 372 -56 78 -132 146 -302 271 -66 48 -121 90 -121 91 0 2
33 -8 74 -21 59 -20 94 -42 177 -108z m-5451 75 c0 -15 -26 -19 -147 -27 -78
-4 -113 -3 -113 4 0 6 19 13 43 16 121 16 217 19 217 7z m4290 -301 c22 -264
48 -375 106 -464 40 -60 40 -28 0 40 -64 111 -54 180 15 94 18 -22 47 -44 65
-50 19 -6 36 -15 39 -20 15 -25 -84 -243 -147 -322 -123 -155 -410 -223 -733
-174 -325 50 -835 263 -1029 429 -48 41 -54 29 97 188 l107 113 99 -98 c54
-55 123 -114 152 -132 80 -49 220 -80 255 -56 34 22 53 152 54 360 0 56 3 102
7 102 3 0 45 -40 92 -89 53 -54 107 -99 141 -117 49 -25 65 -28 150 -29 52 0
117 6 143 14 62 18 136 84 167 150 21 45 40 66 40 44 0 -51 -69 -389 -100
-492 -22 -74 -40 -139 -40 -145 1 -22 60 101 84 174 13 41 36 158 51 260 15
102 31 193 36 202 5 9 34 41 64 72 34 34 55 63 55 77 0 14 4 19 9 14 5 -6 14
-71 21 -145z m-3410 115 c-7 -9 -15 -13 -17 -11 -7 7 7 26 19 26 6 0 6 -6 -2
-15z m4121 -143 c47 -30 139 -138 182 -212 32 -57 67 -160 67 -200 0 -44 -15
-29 -40 38 -41 110 -108 237 -150 284 -22 26 -63 59 -91 74 -27 15 -49 31 -49
36 0 16 37 7 81 -20z m1077 -553 c143 -53 368 -160 437 -207 29 -20 44 -40 55
-72 21 -63 25 -67 68 -75 21 -3 52 -14 68 -24 39 -24 117 -158 172 -294 l44
-110 -22 -21 c-25 -26 -23 -29 -86 119 -90 211 -121 249 -224 279 -51 15 -56
19 -74 62 -34 82 -179 176 -443 284 -136 56 -153 66 -153 87 0 12 5 23 11 23
6 0 72 -23 147 -51z m941 -835 c36 -30 38 -45 11 -116 -21 -54 -132 -189 -145
-176 -4 3 12 34 35 68 79 116 99 189 60 210 -12 6 -30 8 -40 5 -22 -7 -26 5
-8 23 19 19 54 14 87 -14z m66 -348 l38 -29 -6 -64 c-7 -73 -25 -116 -49 -121
-16 -3 -17 3 -12 56 4 33 4 72 0 86 -8 34 -71 66 -131 66 -25 0 -45 5 -45 10
0 19 44 30 106 27 50 -2 69 -8 99 -31z"/>
<path d="M5444 6049 c-247 -23 -662 -166 -746 -257 -24 -26 -86 -178 -76 -187
2 -3 29 8 60 25 30 16 104 46 164 65 261 85 465 112 603 81 57 -13 84 -15 127
-7 82 15 112 35 120 77 8 43 -1 183 -13 194 -14 13 -144 18 -239 9z"/>
<path d="M6392 6037 c-18 -23 -60 -153 -63 -198 l-4 -44 45 -12 c25 -6 84 -12
132 -12 136 -1 342 -46 436 -95 l31 -16 -2 62 c-4 73 -13 93 -64 138 -48 42
-133 81 -297 134 -152 50 -201 59 -214 43z"/>
<path d="M5650 5509 c0 -68 3 -90 13 -86 6 2 12 12 12 23 0 10 8 20 18 22 16
3 25 42 10 42 -5 0 -9 14 -10 31 -2 32 -18 59 -34 59 -5 0 -9 -41 -9 -91z"/>
<path d="M1132 4110 c0 -14 2 -19 5 -12 2 6 2 18 0 25 -3 6 -5 1 -5 -13z"/>
<path d="M1590 4100 c0 -5 5 -10 10 -10 6 0 10 5 10 10 0 6 -4 10 -10 10 -5 0
-10 -4 -10 -10z"/>
<path d="M1934 5214 c-17 -14 -17 -15 -1 -10 10 3 32 6 48 6 16 0 29 5 29 10
0 16 -54 12 -76 -6z"/>
<path d="M2070 5220 c0 -5 4 -10 9 -10 5 0 18 -3 28 -6 16 -5 16 -4 -1 10 -23
18 -36 20 -36 6z"/>
<path d="M1945 5180 c-3 -5 -1 -10 5 -10 6 0 8 -4 5 -10 -3 -5 -1 -10 4 -10 6
0 11 9 11 20 0 21 -15 27 -25 10z"/>
<path d="M2126 5173 c-2 -10 -1 -36 4 -58 7 -39 8 -38 8 18 -1 60 -3 69 -12
40z"/>
<path d="M2070 5171 c0 -5 5 -13 10 -16 6 -3 10 -2 10 4 0 5 -4 13 -10 16 -5
3 -10 2 -10 -4z"/>
<path d="M2020 5080 c8 -5 22 -9 30 -9 10 0 8 3 -5 9 -27 12 -43 12 -25 0z"/>
<path d="M8753 5334 c-8 -4 -13 -26 -13 -61 0 -47 2 -54 15 -43 8 6 19 9 25 5
5 -3 10 0 10 8 0 8 7 20 16 27 8 8 14 25 12 39 -2 20 -9 26 -28 28 -14 1 -31
-1 -37 -3z m37 -34 c0 -5 -4 -10 -10 -10 -5 0 -10 5 -10 10 0 6 5 10 10 10 6
0 10 -4 10 -10z"/>
<path d="M8664 5319 c-3 -6 -2 -14 4 -18 6 -3 12 -22 14 -41 5 -54 22 -41 24
18 2 45 0 52 -16 52 -10 0 -22 -5 -26 -11z"/>
<path d="M8376 5238 c9 -59 14 -60 14 -5 0 26 -5 47 -10 47 -6 0 -8 -16 -4
-42z"/>
<path d="M8008 5232 c-21 -4 -24 -42 -6 -60 10 -10 10 -15 -2 -22 -8 -5 -11
-12 -7 -16 9 -9 37 15 37 32 0 7 -8 18 -17 23 -17 10 -17 12 1 26 22 17 19 23
-6 17z"/>
<path d="M7891 5190 c0 -19 4 -42 9 -50 8 -12 10 -10 9 10 -1 14 -5 36 -9 50
-7 23 -8 22 -9 -10z"/>
<path d="M7930 5209 c0 -7 8 -18 17 -24 17 -12 17 -14 -2 -36 -13 -14 -15 -20
-6 -17 23 7 35 33 26 54 -4 11 -7 22 -7 27 1 4 -5 7 -13 7 -8 0 -15 -5 -15
-11z"/>
<path d="M8760 5115 c-10 -12 -9 -20 3 -39 12 -17 13 -26 5 -34 -20 -20 -1
-24 27 -6 22 14 25 22 19 48 -9 45 -32 58 -54 31z"/>
<path d="M8354 5058 c-4 -6 1 -17 12 -25 16 -12 17 -16 5 -34 -10 -18 -10 -20
1 -17 20 7 22 40 3 54 -15 11 -15 13 2 23 16 9 16 10 1 11 -9 0 -20 -5 -24
-12z"/>
<path d="M8008 5023 c-2 -5 -1 -24 3 -43 5 -30 7 -31 8 -8 0 14 4 33 7 42 6
16 -11 23 -18 9z"/>
<path d="M7672 4998 c-14 -14 -16 -74 -3 -82 14 -9 40 4 46 24 6 20 -10 70
-23 70 -4 0 -13 -5 -20 -12z m28 -38 c0 -31 -16 -41 -26 -15 -8 19 2 45 16 45
5 0 10 -13 10 -30z"/>
<path d="M7725 5000 c-3 -5 -2 -10 4 -10 5 0 11 -17 13 -37 3 -37 4 -37 8 10
4 32 1 47 -7 47 -6 0 -15 -4 -18 -10z"/>
<path d="M8940 4989 c-63 -5 -142 -13 -175 -18 -56 -10 -54 -10 35 -6 194 9
455 27 459 31 7 6 -191 2 -319 -7z"/>
<path d="M8628 4953 c12 -2 30 -2 40 0 9 3 -1 5 -23 4 -22 0 -30 -2 -17 -4z"/>
<path d="M8503 4943 c15 -2 37 -2 50 0 12 2 0 4 -28 4 -27 0 -38 -2 -22 -4z"/>
<path d="M8388 4933 c12 -2 32 -2 45 0 12 2 2 4 -23 4 -25 0 -35 -2 -22 -4z"/>
<path d="M8278 4923 c12 -2 32 -2 45 0 12 2 2 4 -23 4 -25 0 -35 -2 -22 -4z"/>
<path d="M8163 4913 c15 -2 37 -2 50 0 12 2 0 4 -28 4 -27 0 -38 -2 -22 -4z"/>
<path d="M8058 4903 c12 -2 32 -2 45 0 12 2 2 4 -23 4 -25 0 -35 -2 -22 -4z"/>
<path d="M7938 4893 c18 -2 45 -2 60 0 15 2 0 4 -33 4 -33 0 -45 -2 -27 -4z"/>
<path d="M7833 4883 c15 -2 37 -2 50 0 12 2 0 4 -28 4 -27 0 -38 -2 -22 -4z"/>
<path d="M7748 4873 c12 -2 30 -2 40 0 9 3 -1 5 -23 4 -22 0 -30 -2 -17 -4z"/>
<path d="M7643 4863 c9 -2 25 -2 35 0 9 3 1 5 -18 5 -19 0 -27 -2 -17 -5z"/>
<path d="M8838 4843 c-7 -16 -18 -36 -27 -46 -17 -20 -15 -22 26 -30 37 -7 65
15 45 35 -7 7 -12 25 -12 40 0 36 -17 36 -32 1z"/>
<path d="M8951 4767 c-1 -68 -5 -99 -13 -102 -7 -2 -56 -8 -108 -13 l-95 -11
107 4 c87 2 108 0 112 -12 3 -8 6 -86 6 -174 l0 -159 -182 -2 -183 -2 180 -6
180 -5 0 -155 c0 -149 -1 -155 -20 -153 -11 0 -100 4 -197 8 l-178 7 -1 77 c0
42 -4 96 -8 121 -7 35 -9 18 -10 -77 l-1 -123 -47 -2 -48 -1 50 -6 50 -6 7
-164 c4 -90 9 -166 12 -168 3 -3 4 70 3 163 l-2 168 100 -3 c55 -2 143 -6 195
-10 l95 -6 -3 -160 c-2 -88 1 -173 7 -190 7 -22 10 22 10 158 l1 187 153 2
152 1 -145 9 c-80 6 -148 13 -152 16 -3 4 -3 75 0 157 l7 150 133 -3 c88 -2
132 0 132 7 0 7 -46 11 -134 11 l-133 0 -7 53 c-3 28 -6 107 -6 175 l0 122
143 1 c78 1 153 5 167 9 15 5 -43 8 -142 9 l-168 1 -1 53 c0 28 -4 72 -8 97
-7 38 -9 29 -10 -53z"/>
<path d="M8394 4789 c-4 -8 0 -9 15 -4 25 8 27 -6 5 -40 -9 -14 -12 -25 -7
-25 13 0 45 58 38 70 -8 13 -42 13 -51 -1z"/>
<path d="M8040 4755 c-10 -12 -10 -15 3 -15 10 0 17 -11 20 -32 3 -25 4 -22 5
15 2 48 -6 58 -28 32z"/>
<path d="M8505 4630 l-40 -6 43 -5 c24 -2 48 -2 53 2 17 10 -12 15 -56 9z"/>
<path d="M8623 4633 c15 -2 39 -2 55 0 15 2 2 4 -28 4 -30 0 -43 -2 -27 -4z"/>
<path d="M8145 4609 c-22 -5 -13 -7 33 -8 34 0 62 1 62 3 0 8 -66 11 -95 5z"/>
<path d="M8358 4613 c17 -2 47 -2 65 0 17 2 3 4 -33 4 -36 0 -50 -2 -32 -4z"/>
<path d="M7863 4593 c32 -2 81 -2 110 0 29 2 3 3 -58 3 -60 0 -84 -1 -52 -3z"/>
<path d="M8812 4507 c-28 -29 -31 -58 -4 -34 27 25 34 21 27 -17 -4 -21 -2
-36 5 -41 17 -10 21 -3 27 59 5 51 4 56 -14 56 -11 0 -29 -10 -41 -23z"/>
<path d="M8414 4508 c-5 -7 -2 -9 8 -5 26 9 29 -4 8 -33 -26 -37 -25 -50 4
-50 30 0 42 16 26 35 -8 10 -8 19 -1 33 6 11 7 22 4 26 -11 10 -41 7 -49 -6z
m36 -68 c0 -5 -4 -10 -10 -10 -5 0 -10 5 -10 10 0 6 5 10 10 10 6 0 10 -4 10
-10z"/>
<path d="M8173 4470 c0 -25 2 -35 4 -22 2 12 2 32 0 45 -2 12 -4 2 -4 -23z"/>
<path d="M8046 4491 c-3 -5 1 -12 10 -15 11 -4 14 -13 10 -31 -4 -14 -2 -25 4
-25 5 0 10 18 10 40 0 28 -4 40 -14 40 -8 0 -17 -4 -20 -9z"/>
<path d="M7728 4456 c-13 -31 -4 -59 19 -54 25 4 32 78 8 78 -8 0 -20 -11 -27
-24z m32 -10 c0 -15 -18 -31 -26 -23 -7 7 7 37 17 37 5 0 9 -6 9 -14z"/>
<path d="M8171 4333 l-1 -33 -97 -2 -98 -2 100 -5 c101 -6 135 -4 117 8 -6 3
-12 20 -15 36 l-4 30 -2 -32z"/>
<path d="M7755 4300 l-70 -6 95 -2 c61 0 88 2 75 8 -11 5 -22 8 -25 8 -3 -1
-36 -4 -75 -8z"/>
<path d="M8540 4300 c0 -5 5 -10 10 -10 6 0 10 5 10 10 0 6 -4 10 -10 10 -5 0
-10 -4 -10 -10z"/>
<path d="M8073 4213 c-22 -8 -14 -21 9 -15 19 5 21 2 15 -31 -3 -21 -2 -37 4
-37 5 0 9 20 9 45 0 44 -6 51 -37 38z"/>
<path d="M7734 4195 c-15 -12 -15 -14 -2 -9 14 5 17 -2 21 -38 3 -42 4 -42 5
10 1 28 1 52 -1 52 -2 0 -12 -7 -23 -15z"/>
<path d="M8425 4191 c-3 -7 2 -11 14 -11 26 0 27 -12 1 -35 -40 -36 -8 -64 36
-30 14 11 16 17 6 23 -7 5 -11 19 -10 33 2 18 -2 25 -19 27 -11 2 -24 -2 -28
-7z"/>
<path d="M8833 4173 c-21 -8 -15 -23 9 -23 l21 0 -21 -23 c-12 -13 -22 -28
-22 -34 0 -12 32 -23 68 -23 30 0 24 24 -6 28 l-22 3 19 25 c11 14 17 32 14
40 -5 14 -35 18 -60 7z"/>
<path d="M8183 4115 c0 -27 2 -38 4 -22 2 15 2 37 0 50 -2 12 -4 0 -4 -28z"/>
<path d="M7830 4055 c0 -32 3 -55 7 -51 7 7 5 98 -3 105 -2 2 -4 -22 -4 -54z"/>
<path d="M7968 4003 c18 -2 45 -2 60 0 15 2 0 4 -33 4 -33 0 -45 -2 -27 -4z"/>
<path d="M8160 4001 c-25 -7 -25 -7 5 -12 17 -2 62 -1 100 2 l70 5 -62 2 c-34
1 -67 4 -75 6 -7 2 -24 1 -38 -3z"/>
<path d="M7738 3913 c27 -5 28 -11 0 -40 -27 -29 -13 -49 27 -39 25 6 26 8 11
25 -11 12 -13 20 -5 28 17 17 1 33 -29 32 -24 -2 -24 -2 -4 -6z"/>
<path d="M8071 3891 c-11 -7 -9 -10 9 -13 l23 -3 -26 -31 c-15 -18 -27 -35
-27 -38 0 -11 59 -6 65 5 4 6 0 9 -8 7 -22 -4 -23 3 -3 34 25 39 5 63 -33 39z"/>
<path d="M8430 3860 c0 -6 7 -10 16 -8 10 2 19 -3 21 -9 3 -7 0 -13 -5 -13
-13 0 -42 -28 -42 -41 0 -5 17 -8 38 -8 23 1 28 3 15 6 -30 6 -29 17 3 32 36
16 28 45 -14 49 -19 2 -32 -1 -32 -8z"/>
<path d="M8807 3834 c-16 -16 -5 -25 22 -19 41 9 47 -10 10 -35 -37 -27 -29
-38 34 -46 51 -7 67 9 21 20 -25 7 -25 8 -9 26 28 31 16 55 -30 58 -23 2 -44
0 -48 -4z"/>
<path d="M8213 3650 c0 -25 2 -35 4 -22 2 12 2 32 0 45 -2 12 -4 2 -4 -23z"/>
<path d="M8525 3541 c59 -9 382 -26 645 -36 93 -3 123 -2 95 5 -35 8 -320 22
-680 35 -93 3 -106 2 -60 -4z"/>
<path d="M5463 4166 c-15 -12 -38 -28 -50 -35 -26 -13 -63 -15 -63 -2 0 5 -17
3 -37 -5 -62 -22 -127 -16 -117 10 4 10 -9 9 -56 -3 -50 -13 -62 -14 -69 -2
-7 10 -12 8 -24 -8 -8 -12 -36 -30 -63 -40 -26 -10 -50 -24 -52 -30 -6 -17 11
-14 93 19 42 17 85 30 96 30 12 0 62 -15 113 -34 159 -60 301 -84 571 -96 132
-6 246 -13 254 -16 19 -6 328 14 411 27 40 6 94 25 140 49 41 21 93 42 115 47
l40 7 -45 4 c-26 2 -46 -1 -48 -7 -2 -6 -17 -11 -32 -11 -16 0 -33 -6 -37 -14
-12 -21 -183 -53 -359 -67 -118 -10 -181 -10 -290 -1 -76 7 -197 17 -269 22
-138 11 -287 35 -317 51 -28 15 -22 30 10 23 15 -4 24 -3 20 1 -4 4 15 25 42
46 45 36 67 59 56 59 -2 0 -17 -11 -33 -24z"/>
<path d="M5752 3809 c8 -24 136 -49 284 -56 149 -6 219 3 262 35 22 17 14 17
-170 17 -106 0 -235 4 -287 9 -77 7 -93 6 -89 -5z"/>
<path d="M6962 3630 c0 -14 2 -19 5 -12 2 6 2 18 0 25 -3 6 -5 1 -5 -13z"/>
<path d="M6927 3553 c-4 -3 -7 -22 -7 -42 1 -39 12 -28 24 22 6 25 -2 35 -17
20z"/>
<path d="M6892 3463 c-6 -12 -12 -32 -12 -44 0 -21 1 -22 16 -7 9 9 14 27 12
44 -3 28 -3 29 -16 7z"/>
<path d="M6840 3369 c0 -11 5 -17 10 -14 6 3 10 13 10 21 0 8 -4 14 -10 14 -5
0 -10 -9 -10 -21z"/>
<path d="M6796 3295 c-3 -8 -1 -15 4 -15 6 0 10 7 10 15 0 8 -2 15 -4 15 -2 0
-6 -7 -10 -15z"/>
<path d="M6760 3256 c0 -18 -29 -48 -40 -41 -5 3 -12 -5 -16 -17 -3 -13 -16
-36 -26 -51 -24 -33 -14 -51 10 -21 9 12 34 42 55 66 38 47 44 62 27 73 -5 3
-10 -1 -10 -9z"/>
<path d="M1260 3680 c0 -5 5 -10 10 -10 6 0 10 5 10 10 0 6 -4 10 -10 10 -5 0
-10 -4 -10 -10z"/>
<path d="M5430 1862 c29 -34 55 -60 58 -57 3 3 -20 31 -53 63 l-58 57 53 -63z"/>
</g>
</svg>
